<svg version="1" xmlns="http://www.w3.org/2000/svg" width="128.609" height="121.639" viewBox="0 0 128.609 121.639"><g fill="#fff"><path d="M64.368 11.241c1.354 3.251 2.627 6.583 3.956 9.859 1.841-2.618 3.511-5.407 5.275-8.102-.227-.336-.448-.415-.439-.879.024-1.351 2.067-1.066 1.821.251-.081.434-.358.531-.879.753.172 2.487.402 4.914.564 7.41 1.77-1.183 3.509-2.938 5.275-4.333-1.24-1.601 1.993-2.251 1.57-.377-.083.367-.437.672-1.067.628-.759 3.386-1.49 6.799-2.261 10.173 1.349.077 2.706-.045 3.077 1.005.365 1.037-.25 1.853-1.068 2.198h-31.837c-2.009-.688-1.17-3.908 1.758-3.14-.75-3.395-1.491-6.798-2.261-10.173-1.397-.097-1.115-2.037.126-1.885.617.076.991.855.564 1.507 2.148 1.913 4.35 3.773 6.595 5.59.155-2.733.38-5.397.628-8.038-.206-.4-.607-.382-.691-.816-.399-2.065 3.063-.893 1.444.502 1.515 2.421 3.127 4.744 4.584 7.222.99-2.985 1.771-6.184 2.638-9.294-.09-.333-.6-.437-.628-.941-.077-1.377 1.899-1.209 1.884-.063-.006.495-.262.582-.628.943zM70.71 105.123c.091-.391.268-.696.314-1.13 1.91.686 4.642.55 6.908.879-.032.365-.094.703-.063 1.13.677.14 1.535.098 2.198.251.21 2.272-.395 3.909-.502 6.154-.651-.104-1.387-.12-2.072-.188.083-2.031.208-4.02.314-6.027-1.568-.226-2.965-.243-4.647-.314-.101-.213-.101-.791 0-1.004-.24.116-.153.56-.251.816-.707-.214-1.47-.373-2.199-.567zM63.237 104.433h1.381c-.027.561.072 1.016 0 1.318-.468-.008-.961-.04-1.193.188-.363-.201-.115-1.016-.188-1.506zm15.009 0c.793.106 1.424.376 2.135.564-.042.418-.269.652-.251 1.13-.818-.102-1.387-.455-2.197-.564l.313-1.13zM38.935 104.495c.28.086.067.67.062.879-.507.015-.902.145-1.317.251.369-.427.937-.654 1.255-1.13zM57.083 104.685c-.028.47.047.947 0 1.256-1.312.125-3.184.196-4.646.377-.132-.351-.137-.827-.125-1.319 1.489-.166 3.278-.363 4.771-.314zm-4.71 2.448c-.625.052-1.492.176-2.009.125.083-1.192-.876-1.342-1.13-2.197 1.77-.536 3.521.259 3.139 2.072zm30.143-2.072c1.609-.165 3.183.613 3.203 2.01.01.727-.256 1.548-.439 2.449-.164.799-.35 1.854-.565 2.261-1.006 1.895-4.581.778-4.71-1.068-.04-.571.199-1.567.377-2.512.329-1.745.426-2.965 2.134-3.14zm-.314 6.279c.109-.004.195.015.251.063.447-.476.533-1.645.565-2.323-.693.274-1.005 1.514-.816 2.26zm-9.545.502c-.657.188-1.413-.046-2.135 0 .022-2.069.041-4.146.126-6.153.492.017 1.609-.066 2.198.062.422 2.064-.315 3.922-.189 6.091zm15.071-5.902c-.33 2.35-.56 4.8-.753 7.285-.622-.007-1.104-.152-1.695-.188.197-2.482.402-4.957.69-7.347.605.064 1.177.163 1.758.25zm1.193.188c.655.077 1.337.128 1.885.314-.081 2.64-.584 4.857-.88 7.285-.559-.153-1.229-.195-1.82-.314-.183-.534-.26-1.073-.377-1.633-.105-.505-.37-1.093-.376-1.57-.004-.249.155-.504.188-.753.126-.963.124-1.992.314-3.014.312.837.494 1.808.689 2.763.218-.933.262-2.042.377-3.078zm-24.365 1.13c.042.46.088.917.062 1.444h-1.381c-.144-.443.104-.902 0-1.319.383-.099.887-.075 1.319-.125zM64.807 110.273c.158.462-.014 1.003.062 1.443-.405.14-1.062.026-1.57.063-.137-.344-.026-.937-.062-1.382.387-.178 1.015-.115 1.57-.124zM104.684 9.168c.431-.008.412-.467.753-.564.918.353 1.611-.396 2.324-.063l-.188-.815c.061-.428.69-.527.753-.88.188-1.04-1.811-1.464-1.005-2.763.68-.079 1.143.549 1.507 1.004 1.066 1.333 1.966 3.181 2.386 4.898.207.845.403 1.971.314 3.14-.034.448-.231.863-.314 1.319v.628c-.039.213-.208.33-.251.502-.095.375-.08.759-.188 1.13-.575 1.963-1.36 3.89-2.135 5.589-.553 1.212-.863 2.253-1.885 2.826.004.267.105.439.063.753-.879 1.235-1.366 2.862-2.763 3.58-.014 1.229-1.03 2.074-1.634 2.889-1.526 2.064-3.254 4.026-4.835 5.903 1.243.327 2.597.543 3.831.879 3.027-2.675 6.373-6.372 9.106-9.796.365-.458.795-1.257 1.192-1.507.5-.315 1.292-.27 1.382-.879.058-.394-.246-.536-.314-.879.57-1.215 1.417-2.477 1.57-4.082.055-.573-.209-1.08 0-1.444.283-.492 1.741-.657 2.637-.565 2.909.299 4.809 2.902 5.275 5.841-.7.255-1.573.489-1.695 1.381.01 1.048 1.011 1.449 1.695 2.009-1.104 3.271-3.807 4.943-5.966 7.159-.351.051-.556-.141-.815 0-.105 1.116-.772 1.325-1.633 2.009-.528.42-.979.979-1.444 1.13-.23.075-.639-.083-.816.063-.21.172-.162.589-.313.815-.253.38-.787.404-1.256.691-.273.167-.359.485-.628.753-.32.318-.937.684-1.445 1.066-.777.588-1.097 1.25-2.198 1.068-.602 1.973-.994 4.155-1.443 6.279-.883 1.702-3.209.4-4.898.251-.215.689-.204 1.602.125 1.947 1.083.107 1.997-.49 3.014-.88l1.444-.564c.442-.17 1.17-.511 1.507-.502.44.011.78.476 1.256.502.519.029 1.213-.218 1.444-.565.146-.217.085-.685.251-.941.274-.426 1.501-.771 2.198-1.067 3.529-1.501 7.447-3.397 10.047-5.903.806-.775 1.599-1.517 2.135-2.7.173-.382.193-.817.439-1.004.534-.407 1.938-.188 2.386.188.777.656.865 1.904.754 3.266-.735 8.979-9.335 12.034-16.579 14.569-1.578.552-4.061 1.415-5.902 2.01-.585.189-1.335.386-1.383.942-.022.275.373.962.942 1.005 1.062.079 2.513-.157 3.831-.313 2.343-.28 4.56-.578 6.782-.942.328-.054.62-.241.941-.314l.942-.062c3.478-.756 6.8-1.688 8.792-3.58 2.957-.339 2.313 3.091 1.884 4.584-.205.712-.598 1.853-1.067 2.512-1.105 1.55-4.167 2.763-6.719 3.58-2.773.89-5.594 1.42-8.352 1.695-1.414.142-3.103.138-4.521 0-1.306-.126-3.591-.996-3.768.439-.162 1.308 2.011 1.807 3.077 2.198 1.261.463 2.937.899 4.019 1.067 1.552.241 2.391.302 4.02.438.888.075 1.941.062 2.763 0 2.998-.223 5.992-.719 8.289-1.507 2.553 1.808.024 5.539-1.444 6.782-2.178 1.842-5.074 2.179-9.104 2.009-4.453-.188-8.387-1.709-12.058-2.763l-1.067-.251c-.6-.167-1.429-.442-2.136-.125-.179.135-.266.361-.502.438-.661 2.002 2.183 2.729 3.58 3.454 5.203 2.7 11.088 4.467 18.776 4.584.091.324.188.546.313.691v1.381c-1.469 2.881-4.931 4.369-8.414 4.647-1.064.085-2.083-.028-3.077-.188-5.031-.808-8.322-2.575-12.246-4.647-.519-.272-1.331-.775-1.695-.689-.29.067-.892 1.096-.879 1.507.012.406.615.867.942 1.193 1.021 1.019 2.231 2.266 3.265 3.14.04.274.104.523.188.754.215.109.368-.048.691 0 1.953 1.578 4.025 3.088 6.97 3.769.562.129 1.334.164 1.57.564.183.312.171 1.112 0 1.507-.708 1.639-3.766 2.254-6.217 2.011-.721-.072-1.374-.371-2.072-.502-2.183-.413-4.307-.635-6.028-.816-.823 1.614-2.25.968-4.082.564-1.144-.251-2.332-.774-3.202-.439-.819.316-1.669 1.687-2.262 2.324-.808.87-1.535 1.542-2.197 2.386 2.558.331 5.183.595 7.473 1.193.168-.467-.016-1.15.062-1.57 2.663.403 5.936.402 8.729.188-.113-.577-.229-1.153-.314-1.758 5.209-.171 9.411-1.348 13.627-2.512-.4 2.816-.591 6.715-.313 10.047-2.874 1.104-6.272 1.682-10.11 1.821-.052.722.144 1.197.188 1.82-3.228.611-6.574.581-9.922.188-.089.43-.029 1.452-.251 1.947-1.979.006-3.827-.69-5.777-1.004-2.117-.342-4.283-.416-6.531-.691-1.46-.179-3.104-.315-4.521-.44-.583-.051-1.534-.212-2.136-.062-.546.136-1.494 1.179-2.01 1.633-1.338 1.18-2.438 2.146-3.956 3.328-.518.404-1.61 1.5-2.135 1.507-.616.007-1.573-1.101-2.072-1.507-2-1.627-3.836-3.062-5.776-4.771-6.685.44-12.282 1.185-18.085 2.261-.39-.429-.28-1.354-.44-2.01-2.945.382-7.199.488-10.11-.188.062-.587.166-1.132.188-1.758-3.697-.239-7.166-.705-9.985-1.821.036-1.732.208-4.008.063-6.28-.072-1.124-.106-2.29-.314-3.076-.088-.333-.403-.537-.126-.88 3.955 1.446 8.372 2.431 13.564 2.639-.078.592-.214 1.126-.314 1.694 2.617.404 6.141.18 8.729-.062v1.444c2.229-.173 4.884-.868 7.033-.942-.375-.597-.964-1.159-1.508-1.758-.522-.577-1.108-1.34-1.694-1.696-.405-.245-1.281-.49-2.011-.691-3.305-.909-7.439-1.076-11.365-.502-1.564.229-2.983.811-4.835.816-2.329.008-6.021-.984-4.898-3.768 6.142-1.186 9.612-5.041 13.25-8.729-.276-.687-.108-1.817-.753-2.135-4.16 2.145-9.349 5.269-15.574 5.652-.503.03-.99.031-1.443 0-2.191-.152-5.292-1.27-6.846-2.638-.846-.747-2.09-2.342-1.13-3.894l1.005.251c.268-.063.433-.408.691-.502.394-.145 1.132-.129 1.758-.188.617-.058 1.308-.225 1.758-.126.548.121.566.813 1.13 1.005.6.204 1.691.131 2.072-.438.246-.368.091-.829.502-1.13.23-.169 1.73-.505 2.072-.502.228.002.563.212.753.188.375-.047.55-.513.879-.69.406-.22 1.006-.31 1.507-.503 1.067-.412 2.623-1.18 3.957-1.632.628-.544 1.456-.866 2.386-1.318.733-.356 1.927-.891 2.072-1.696.128-.706-.438-1.431-1.192-1.57-.929-.17-2.652.544-4.271 1.005-1.08.308-2.184.685-3.14.942-.38.102-.896.317-1.068.314-.479-.01-.802-.509-1.067-.439-.514.131-1.029 1.544-2.135.879-.058-.477.651-.187.565-.69-.263-.599-.578-.03-1.068-.063-.517-.035-.866-.606-1.695-.502-.979.122-1.185 1.016-1.569 1.884-1.715.021-3.436.043-4.773-.313-.354-.263-.237-.7-.505-.95-.493-.459-1.112-.164-1.694.188-.995-.513-1.762-1.254-2.449-2.072-.022-.336.431-.197.564-.377.276-.018.175-.411.439-.439-.286-.375-.302-.56-.691-.628-.353-.062-.612.432-.941.376-.412-.066-.606-1.035-.691-1.317-.178-.595-.33-1.233-.188-1.885.521-.295.677-.956 1.066-1.381 2.159.745 4.954 1.245 8.102 1.507 2.355.196 4.795-.121 6.907-.438 1.127-.17 2.956-.679 4.02-1.067 1.138-.416 3.235-.918 3.14-2.135-.073-.923-.908-.881-1.821-.753-.347.048-.743.008-1.004.062-.515.107-.834.485-1.13.502-.333.021-.604-.209-.879-.251-1.064-.162-2.214.057-3.328-.062-3.211-.342-6.271-.86-8.352-1.695-.35-.344.06-.971-.502-1.066-.455-.078-.452.374-.816.628-.734-.39-1.666-.45-2.261-.942-.349-.288-.391-.799-.816-1.004-1.03.301-1.09-.366-1.569-.816-.399-.375-.841-.455-1.067-.753-.663-.874-.925-2.072-1.005-3.015.567-.165 1.028-.277 1.067-.753.037-.457-.479-.565-.565-1.067-.112-.645.269-1.057.125-1.633.216-.308.791-.256 1.319-.251 2.022 1.909 5.917 2.964 9.355 3.644 1.745.344 4.289.838 6.782 1.066.62.058 1.501.314 1.884.188.407-.134.563-.957 1.067-1.319.45-.323.679-.081 1.005-.502-.831-.562-1.82-.718-2.701-1.005-2.264-.738-4.491-1.471-6.719-2.323-.375-.144-.72-.403-1.067-.502l-.628-.062c-.361-.137-.548-.452-.879-.629-.657-.349-1.253-.517-1.821-.879-3.718-2.371-7.221-5.11-7.85-10.737-.166-1.482-.023-2.865.754-3.518.505-.424 2.251-.604 2.637.063.233.401.241.887.44 1.256 1.337 2.478 4.044 3.973 6.656 5.463.396.226 1.405 1.03 1.82 1.005.642-.038.979-1.066 1.067-1.821.038-.319-.059-.658 0-.941.192-.922 1.068-1.078 1.696-1.695.277-.273.757-.911.753-1.193-.006-.404-.962-.948-1.444-1.318-1.508-1.154-3.187-2.474-4.521-3.705-.832-.767-2.025-1.688-2.89-2.637-1.561-1.72-3.341-3.286-3.077-6.595.265-3.302 2.14-6.51 5.464-6.907 1.099-.133 1.878.111 2.699.502-.19 2.586.952 4.628 2.136 6.468 2.349 3.652 5.229 6.737 8.352 9.858.483.483 1.486 1.614 1.884 1.695.467.096 1.4-.197 2.01-.312.691-.134 1.347-.31 1.885-.377-2.613-3.412-5.933-7.043-8.289-11.115-1.211-2.092-2.187-4.156-3.141-6.405-.907-2.141-1.778-4.767-2.009-7.285-.021-.245-.031-.713 0-1.066.227-2.577 1.308-5.227 2.889-7.097 1.435-1.694 4.646-3.499 7.348-1.758-.427 2.747.062 5.283.69 7.348 1.843 6.043 5.107 11.512 8.228 17.018 1.283-.087 2.731-.161 3.391.754.552.767.539 1.918.125 2.637-.187.325-.774.642-.815.942-.064.474.851 1.642 1.13 2.073.909 1.397 1.578 2.412 2.512 3.893.232.368.819 1.751 1.382 1.821.506.062 1.461-.891 1.947-1.256 3.784-2.85 7.477-4.69 13.188-5.589l1.382-.188c.337-.05 1.029-.095 1.192-.251.418-.402.169-1.428 1.256-1.319.595.061.856.802 1.131 1.256 1.363.354 2.837-.046 4.208.125.841.105 1.83.28 2.763.439 2.608.446 5.108 1.196 7.096 2.198 1.071-1.443 3.698-.338 5.526.062 1.446.317 2.835.664 4.082.879 1.002-1.572 1.939-3.21 3.015-4.71.333-.217.599.387.879.063.266-.452-.423-.441-.438-.816 3.046-5.337 6.475-10.965 8.854-17.081.799-2.054 1.622-4.312 1.884-6.656.087-.777.074-1.844 0-2.575-.021-.218-.23-.584-.188-.816.159-.856 2.258-1.073 3.329-.941 1.226.149 2.232.731 2.763 1.443-.341.943-1.684.496-2.637.816-.848.716-1.339 1.422-1.068 2.386l.063.502.753.816c.16.333-.113.571.251.815l-.006-.008zm-35.292 35.607h-11.366c-.042-3.016.084-6.196-.063-9.106-4.234.955-8.502 2.742-11.491 5.338-.042 1.235.083 2.638-.063 3.769-1.6.271-3.054-.37-4.396 0-.476.13-1.062.92-1.444 1.256-.539.471-1.127.764-1.382 1.256.182.635.076 1.341.313 2.009.157.44.487.68.565 1.13.247 1.431.121 3.023.502 4.396.143.516.623.867.564 1.444h5.339v-11.493c3.81.042 7.786-.084 11.491.062v11.43h-11.491c-.042 3.81.083 7.786-.063 11.491h-3.077c.704 3.897 1.453 7.499 2.135 11.492h1.006v-11.492h11.491v11.492h-11.492c.042 2.219-.083 4.605.062 6.719 3.758-.763 7.637-1.405 11.492-2.071.042-1.528-.083-3.225.062-4.647h9.922c.637-3.676 1.82-6.805 1.508-11.429.082-.148.487.026.502-.188.152-.915.289-1.846.69-2.512-.333-.895.352-1.655.502-2.512v-.816c.041-.269.192-.481.251-.754.335-1.547.426-3.206.942-4.771h-2.889v11.491h-11.49v-11.492h11.492c.042-3.811-.084-7.787.062-11.492h6.091c.572-2.212 1.317-4.251 1.57-6.782-.988-.668-2.347-1.074-3.705-1.507-1.276-.406-2.891-.849-4.019-.816v9.043c-.015.049-.054.073-.126.063l.003-.001zm36.171-35.543c-.037.438.412.435.439.062-.067-.239-.256-.157-.439-.062zm-3.328 2.762c.937 0 .986-1.644-.251-1.318-.905.238-.488 1.318.251 1.318zm12.12 11.304c-.005.297.397.682.376 1.005-.02.298-.495.575-.439.942.141.92 1.084.299 1.633.125.929-.294 1.889-.502 2.072-1.381.292-1.389-1.18-2.406-2.198-2.198-.689.142-1.432.769-1.444 1.507zm-12.685.817c.163.131.535.07.502-.188-.049-.139-.219-.156-.313-.251-.059.15-.253.165-.189.439zm-2.889.125c-.01.156.032.261.125.313.014-.049.052-.072.125-.062-.034-.091.073-.325-.063-.314l-.187.063zm-.628 3.705c.071.013.098.069.126.125.305.054.356-.146.438-.314-.049-.014-.072-.052-.062-.125-.223-.162-.532.024-.502.314zm20.786 1.506c.915.329 1.152-1.273.125-1.005-.56.146-.588.839-.125 1.005zm-3.014.879c.103-.625-.239-.806-.438-1.13-1.008-.438-1.588.29-1.758 1.068-.236.218-.426.011-.691 0-1.197.364-.566 2.153.628 1.82.478-.133.372-.788.753-1.13.767.195 1.169-.216 1.506-.628zm-6.343 2.45c.242.003.297-.221.44-.439-.499-.799-1.152.43-.44.439zm-18.776.438c.113.158.388.158.502 0 .075-.535-.577-.535-.502 0zm-21.288 60.224c7.544 1.734 15.361 3.488 22.67 5.022.368-2.313 1.008-5.713 1.694-7.912-4.723-1.053-8.861-2.023-13.752-3.015-.586-.354-1.631-.253-2.197-.628.928-3.871 1.953-8.834 2.825-12.685.317-.135.638-.562.88-.565.041.273-.082.71.062.879.042-1.109 1.391-.912 1.695-1.758-.275-.248-.468-.579-.753-.816.897-.039 1.469-.769.815-1.507.208-.054.758-.106.879.251.074-.303.17-.583.565-.564.153.262.133.6.062.941.397-.126.516-.532.942-.628.152.435.552.62.565 1.193.175-.075.382-.072.502.062.293-.014-.136-.187-.063-.377.8-.752 2.748-.137 3.518.314-.05.536-.152 1.265.126 1.633.183-.671.119-1.543.689-1.695l1.947.376c.424-2.229.84-3.775 1.256-5.525.304-1.28.284-2.438 1.13-3.016-.508.302-1.021.434-1.758.377-1.788-.136-3.806-.947-5.212-1.256-.175-.098-.235-.309-.377-.438-1.301.631-2.88-.354-4.271-.44-.042-.209-.194-.307-.251-.502 1.205-4.863 2.199-10.258 3.454-15.071 5.165 1.134 10.799 2.406 15.637 3.454.521-2.807 1.269-5.226 1.759-8.164-6.09-1.217-11.549-2.514-17.521-3.894-2.626-.607-5.348-1.096-7.976-1.633-.064 4.287-1.305 6.657-2.072 10.235-.221 1.028-.12 2.17-.628 3.267-.151.142-.354.232-.439.438-.188 2.241-.667 4.189-1.318 5.966-.334.546-.741 1.019-.879 1.759.271-.042.389.071.502.188.121.249.077 1.076-.188 1.319.229 1.186-.18 2.235-.753 2.826-.207.101-.444-.219-.438.062-.123.46.22.665.188 1.067-.047.594-.837.877-.754 1.507.523.596.051 1.619-.439 1.947-.056.76-.294 1.338-.377 2.071l.377-.188c-1.25 6.543-2.74 13.467-3.894 19.467-.292 1.523-.415 3.173-1.318 3.831.427.128.458.847.251 1.256.7.075 1.092.458 1.508.816.101-.171.148-.396.438-.377.229.045.196.349.377.439-.01-.217.222-.195.315-.309zm-43.394-53.316c.732 4.423 1.644 8.903 2.324 12.874.947 5.521 1.847 10.221 2.763 15.7.224.098.038-.213.188-.188.753 3.796 1.795 10.118 2.512 13.941.2 1.065.489 1.698 0 2.261l.502.125c.896 4.553 1.54 8.035 2.323 12.812 7.03-1.154 14.753-2.674 22.481-3.957.021.272.072.514.125.754.598-.031 1.053-.205 1.634-.251l-1.382-7.913c-.598-.051-.783-.515-1.067-.879-3.984.775-9.52 1.704-13.69 2.449-.215-1.16-.415-2.406-.628-3.644-.251-1.456-.896-3.176-.188-4.145-.367-1.996-.919-4.399-1.256-6.782-.132-.21-.236.242-.314.062-.094-.304-.266-.529-.313-.879l.377-.564c-.673-3.202-1.176-5.813-1.821-9.482-.075-.166-.215.296-.377.063-.118-.529-.247-1.4.062-1.821-.197-1.074-.512-1.587-.753-2.449-.197-.705-.284-1.459-.439-2.261-.33-1.698-.77-3.834-.69-5.338-.67-.124-.468-.805-.564-1.319-.602-3.158-1.476-7.967-2.01-10.864-3.861.547-6.502 1.19-9.799 1.695zm81.26.251c-.129.602.263 1.143.691 1.193.934.112 1.333-1.229 1.57-1.758-.552-.3-1.564.084-2.261.565zm-81.197 9.358c-.13-.727-.098-1.616-.377-2.198-.135-.279-.801-.752-1.193-1.067-1.239-.993-2.588-2.255-3.894-3.014-.457.548-1.324.686-1.759 1.256.344 2.019-.576 2.772-1.443 3.58 2.284 1.346 4.951 1.984 7.473 3.14.782-.005 1.005.237 1.57.503-.078-.776-.248-1.48-.377-2.2zm92.815-2.89c.049.27 1.028 1.162 1.256 1.257 2.323.953 3.248-2.269 1.319-2.89-1.055-.035-1.404.263-2.135.565-.142.428-.497.751-.44 1.068zm-2.449.502c.077.674 1.359.541 1.256-.376-.308-.757-1.318-.163-1.256.376zm-1.947.942c.563.078.693-.307.69-.628-.415-.523-1.246.171-.69.628zm-28.133 7.975h1.256c-.135-2.241 3.564-2.094 3.643-.125-.056-.765.988-.966 1.193-1.633.348-1.129-.252-2.347 0-3.705-1.637.907-3.792-.616-2.826-2.512-.502-.084-.971-.202-1.444-.313-.574 2.796-1.218 5.522-1.82 8.29l-.002-.002zm26.187-6.342c.578-.031.575-1.259-.188-.941-.459.19-.372.972.188.941zm-3.831 4.647c.085.02.12.09.251.062v-.251h-.188c.002.086-.03.139-.063.189zm-93.443.628c.82.881.628-1.137 0 0zm3.454.062c.155.009.303.011.376-.062-.004-.185-.144-.233-.251-.314-.056.11-.175.158-.125.376zm74.038 1.319l.377.188c.109-.205.313-.314.377-.565-.131-.036-.18-.155-.377-.125-.028.265-.297.289-.377.502zm-3.642.251c.155-.008.303-.009.377.063.044-.207.101-.401.125-.629l-.377-.062c-.07.182-.113.39-.125.628zm6.028-.565c-.182 1.353-1.174 2.402-2.7 2.01v3.643c.646.041 1.169.403 1.821.251.47-.108.829-.708 1.507-.689.519.013.843.467 1.13.376.049-1.934-.092-3.676-.063-5.59h-1.695v-.001zm-10.864 2.387c.204-.036.292.043.438.062.155-.39.226-.862.314-1.318-.218.05-.241-.095-.439-.063-.093.449-.173.914-.313 1.319zm-10.99.187c.156.011.195-.099.314-.125-.008-.161-.115-.22-.188-.313-.07.119-.081.296-.126.438zm-.251 1.695c.145-.484.35-.906.502-1.381-.15.025-.137-.115-.313-.063.017.522-.294 1.045-.189 1.444zm-47.726-.565c.184-.409-.141-.811-.628-.753.164.296.146.775.628.753zm-20.221.942c1.169-.104.095-1.83-.879-1.444-1.091.433.438 1.483.879 1.444zm6.154 1.32c.589-.129.412-1.115-.251-1.005-.915.151-.327 1.132.251 1.005zm3.015-.628c-.108-.461-1.029-.43-.879.376.339.48.982.056.879-.376zm81.385 6.153h1.13c.048-1.082.146-2.448.062-3.454-.839.708-.867 2.23-1.192 3.454zm-83.583-2.009c.631.01.45-1.09-.125-.816-.424.202-.367.81.125.816zm17.458.315c-.03.196.078.257.188.313.018-.088.138-.072.188-.125l-.063-.251c-.146-.02-.241.01-.313.063zm-12.874 1.443c.287-.025.49-.137.502-.438-.261-.687-1.224.14-.502.438zm13.501.943c-.061-.306.322-1.284.188-1.633.01.136-.223.028-.313.062.011.325-.075.553-.188.753.262.074.082.92.313.818zm.376 2.511c.001.167-.035.37.126.376l.188-.125c-.136.011-.027-.223-.062-.313l-.252.062zm79.564 1.758c-1.994-.579-3.81.62-3.454 2.89.271.336.708.506.816 1.004-.159.128-.282.359-.188.564.074.03.144.067.188.125.37.051.52-.398.879-.438.241-.027.477.241.879.251.335.008.709-.274.942-.251.229.021.417.355.628.251.142-.273-.147-.418-.125-.753.146-.439.598-.574 1.005-.753.104-1.139-.796-1.511-.942-2.513.072-.282.342-.369.314-.753-.392.048-.524.356-.942.376zm-17.646 6.595c.042 2.281-.083 4.729.062 6.907 1.104-2.528 1.833-4.082 2.638-6.971-.88-.042-1.926.083-2.7-.062v-4.521c0-.446.188-1.126-.314-1.256-.487.427-.052.745-.062 1.256-.03 1.47-1.697 2.575-2.89 2.072-1.466-.619-.514-2.604-.564-4.02-.254.23-.633.418-.816.753-.558 1.021-.241 2.817-1.13 3.58-.349.3-.712.272-1.319.565.203.593.783.809.755 1.633 2.091.042 4.352-.083 6.34.064zm-7.913-5.15c.191-.045.229.064.377.063.061-.442.21-.795.251-1.257-.148.001-.186-.107-.377-.062-.083.419-.226.78-.251 1.256zm1.193-1.005l-.564 2.575c.146.02.235.099.438.062.245-.974.35-1.783.629-2.637h-.503zm-75.294 1.194c.227.283.389.753.628.879.983.517 1.72-.369 1.634-.879-.171-1.02-1.694-.754-2.513-.942-.579.366.034.669.251.942zm-3.265-.189c.158.135.271.314.628.251.823-.514-.685-1.336-.628-.251zm24.24 1.194c-.106-.564-.048-1.292-.377-1.634.039.39.014 1.361.377 1.634zm50.929-.44c.146-.02.241.01.314.063.059-.469-.095-.803-.125-1.005h-.314c.029.327.057.654.125.942zm-77.178.377c.27.363 1.145.412 1.507.125-.068-.543-1.444-.868-1.507-.125zm4.458.44c.332.038.531-.057.564-.314-.126-.666-1.202-.119-.564.314zm72.469-.064c.214-.047.08.255.314.188.185-.15.395-.275.438-.565-.348-.284-.542.164-.752.377zm1.193 0c.432.142.939.516 1.382.44-.093-.619-.855-.568-1.319-.816.001.149-.108.186-.063.376zm-2.009.754c.444 0 .653.265.941.125v-.313c-.363-.149-.5-.134-.879-.251.051.217-.092.242-.062.439zm27.505 1.004c-1.049-.226.119.968 0 0zm-27.568 1.821c.211-.04.583.081.691-.062-.182-.244-.264-.685-.188-1.005-.151.025-.137-.114-.313-.062-.007.433-.194.685-.19 1.129zm2.072-.753c.42.271.591.791 1.005 1.067.062-.085.167-.125.251-.188-.357-.323-.703-1.529-1.256-.879zm-50.803 2.135c.335.021.408.305.691.376l.188-.251c-.234-.143-.437-.317-.691-.439-.056.11-.151.183-.188.314zm47.287 5.15c.396.087.746.218 1.193.251-.042-1.842.083-3.853-.063-5.589-.336 1.819-.808 3.503-1.13 5.338zm-54.006-4.522c.36.157.489-.087.565-.377-.302-.362-.917-.068-.565.377zm71.526 1.695l.125.314c.306.013.559-.028.502-.377-.244-.174-.45-.108-.627.063zm21.603 4.019c.151.06.166.253.439.188.001-.125.171-.08.125-.251-.053-.347-.56-.287-.564.063zm-107.509.378c-.062.253.375.253.314 0-.12-.118-.158-.008-.314 0zm1.695 2.448l.251.063c.014-.07.069-.099.126-.125-.04-.149-.084-.292-.251-.314-.056.112-.175.16-.126.376zm56.267 12.435c.145.128.023.521.063.753 2.212.062 4.823.099 7.096.313.922.087 1.982.378 2.512.251.22-.053.524-.394.753-.628.25-.255.555-.523.502-.69h-10.864v-6.72c-1.192.22-1.945-.563-2.639-.941-.47-.256-.931-.324-1.13-.502-.519-.463-.325-.84-.438-1.57-.095-.594-.499-1.161-.063-1.758h-3.203c.096 1.839 1.317 4-.251 4.835-.559.298-1.911.575-2.638.502-.497-.049-.89-.526-1.193-.439-.042 2.178.084 4.521-.062 6.595h-10.11c.471.366.949 1.482 1.695 1.633.768.154 1.909-.239 2.952-.314 1.904-.138 3.635-.255 5.589-.438.041-.273-.082-.71.062-.879l11.367-.003zm28.133-6.218c.07.014.099.07.125.125.421.03.386-.23.439-.438-.222-.288-.579-.12-.564.313zm-53.755 2.01c.479.808 1.404 1.53 2.01 2.197.203.224.342.658.629.565v-3.203c-.9.126-1.699.355-2.639.441zm37.239 3.705c1.002-1.134 2.081-2.189 3.014-3.392-1.049-.207-2.093-.419-3.077-.689.042 1.339-.083 2.846.063 4.081zm24.868-2.951c.354 1.25 1.822-1.106.377-.628-.27.089-.501.188-.377.628zm-2.449-.441c-.057.318-.051.489.125.691.967.326.723-1.257-.125-.691zm-4.647 4.02c.603.609 1.691.581 2.011 1.443.306.83.176 2.27.188 3.454.014 1.25.098 2.457.125 3.518 3.749-.021 6.872-.664 9.671-1.634-.037-2.307-.1-4.963.063-7.096.059-.767.17-1.452.125-2.072-3.701 1.157-7.703 2.012-12.183 2.387zm-80.569 7.095c2.841.864 5.935 1.476 9.545 1.57.158-2.375-.001-5.067.377-7.223.247-.219.635-.477 1.004-.689.335-.194.893-.387.816-.628-4.541-.211-8.283-1.222-11.994-2.262.494 2.799.224 6.053.252 9.232zm80.381-5.839c.497-.006 1.046.041 1.382-.125-.563-.252-1.035-.597-1.57-.879.055.342.154.641.188 1.004zm-68.324-.753c-.349.404-.982.523-1.381.879.394.087.908.055 1.319.125.034-.255.364-.828.062-1.004zm40.567.564c-3.926-.146-7.171.003-11.052.063-8.341.127-15.848 1.389-22.607 2.701.4 2.906.75 5.863 1.13 8.792 3.325-.73 6.754-1.015 10.11-1.444 1.91-.245 3.76-.413 5.589-.565.947-.078 1.952-.013 2.889-.125l.753-.188c1.361-.172 2.878-.125 4.333-.125 4.47 0 8.768-.032 12.938.313 1.398.116 2.801.079 4.145.252 3.912.503 7.932.918 11.492 1.569.356-2.888.799-5.69 1.005-8.729-6.088-1.469-13.308-2.234-20.723-2.513l-.002-.001zm21.226 2.387c.102.458-.112 1.133-.188 1.758-.145 1.197-.221 2.427-.314 3.58-.049.605-.147 1.159-.125 1.633 2.753.504 6.509.37 9.294 0-.098-2.938-.151-5.918-.313-8.792-3.185.25-7.162.389-10.173.062.47.72 1.614.825 1.819 1.759zm-63.551-1.634c-.079.026-.128.081-.125.188-.083 2.89-.125 5.82-.314 8.603 3.063.443 6.527.501 9.546 0-.243-2.374-.667-4.565-.816-7.032.164-.352.529-.597.879-.879.312-.252.813-.57.754-.816-3.098.356-6.865.195-9.924-.064zm61.416 1.006c.458-.038.935.234 1.256.125-.494-.28-.839-.711-1.318-1.006-.014.328.001.627.062.881zm-52.31.438c.416-.107.811-.236 1.317-.251.005-.209.218-.793-.062-.879-.319.476-.887.705-1.255 1.13zm24.554 9.671c.513.414 1.333 1.254 1.884 1.256.648.002 1.438-.97 1.947-1.381.484-.393.914-.789 1.318-1.13.103-.086.411-.116.314-.313-2.407.042-4.982-.085-7.285.062.574.397 1.094.92 1.822 1.506zM64.682 105.876c-.096.316-.136-.026-.502.063.086-.188.454-.131.628-.063-.012-.374.12-.702.188-1.256.309.022.391-.298.942-.188.149-.169-.038-.285.062-.503.155.159.237.392.44.503 1.5.104 3.605-.392 3.894 1.318.182 1.083.065 2.939 0 4.082-.022.41-.097 1.208-.251 1.444-.434.667-1.707.466-2.638.502-.06-.574-.061-1.771 0-2.449.141.027.026.311.062.439.038.035.299.146.314 0 .046.214.019.366.188.564.234-1.23.137-3.127.062-4.459-.13-.184-.786-.105-.565-.438-.392.301-.251 1.333-.251 2.386 0 .973-.091 1.973.125 2.512-.216.309-.096.951-.125 1.444h-1.884v-.691c-.053-.163-.274.121-.376-.062v-.314c.073.01.112-.014.125-.062.264-.047-.085.239.188.251.204-.266-.21-.348-.377-.439.036-.193.336-.125.251-.438-.148-.113-.424.038-.44-.314.129.125.06.125.188 0 .049-.217-.06-.276-.188-.313.063-.104.291-.045.314-.188.004-.987.196-1.994-.439-2.638.016-.276.224-.423.065-.693zM42.326 112.91l.251-.377c.102-.247-.271-.022-.251-.188-.013-.529.338-.763.188-1.256 1.157-.274 2.299-.285 3.517-.564-.001-.208-.355-.064-.44-.188-.152-.852-.358-1.649-.502-2.512-.133.959-.031 1.992-.126 2.701-.767.091-1.466.25-2.261.312.006-.846.088-1.32-.313-1.82.158-1.059.698-1.584.815-2.89.471-.274 1.163.027 1.382-.438.328.419 1.146-.099 1.759 0 .648 2.364 1.351 4.678 1.884 7.159-.714.081-1.369.222-2.136.251-.1-.402-.141-.863-.251-1.257-.244.028-.496.049-.69.126.066.545.062.543.251 1.067-.521.442-1.595.331-2.324.565-.145.02-.07-.182-.188-.188-1.098.431-2.551.506-3.769.816-.567-2.237-.703-4.907-1.13-7.285.81-.151 1.38-.357 2.198-.377.072.442.031.667.438.815.029.135-.089.12-.188.125.296.247.332.479.502.754-.416.705.174 1.177 0 1.885.026.121.244.05.188.251l-.251-.125c.108.28-.087.518.125.628-.034.13-.098.133-.188.062.077.476-.033.907.125 1.381.409-.051.821-.1 1.192-.188.138.436.136 1.319.691 1.13-.049-.249-.286-.208-.502-.376h.004zm18.337-5.337c.396-.354-.201-1.204.251-1.507-.1-.252-.316-.556-.062-.816.037-.225-.375-.001-.314-.251.267.069.214-.344.44-.125-.058-.184-.058-.193 0-.377.687-.004 1.275-.104 2.009-.062.127 2.487.055 5.09.188 7.348-.796.106-1.435.148-2.009.062-.051-1.232.09-1.594-.502-2.197l.251-.377c-.184-.287-.316-.486-.188-.816.131-.026.167.043.251.063.154-.016-.283-.313.125-.251l-.439-.691v-.003zm-4.145-1.32c-.253 1.218-.729 2.475-.063 3.328-.343.752-.412 1.256-.313 2.449-.645.11-1.37.137-2.072.188-.181-1.913-.298-3.889-.377-5.902.982-.022 1.997-.24 2.825-.063zm17.834-.187c1.105.062 1.992.079 2.889.251-.372 1.192-.974 2.259-.44 3.328-.375.63-.497 1.511-.564 2.448-.657-.075-1.372-.094-2.072-.125.061-2.048.163-3.964.187-5.902zm-24.114 4.771c.01.591.819.83 1.005 1.57-1.807.66-3.605-.219-3.265-2.324.584-.127 1.268-.156 1.884-.251-.25.037-.111-.3-.188-.377-.336-.336-1.018-.389-1.443-.753-.944-.806-.901-3.407.69-3.58.47.201.515.826.879 1.13-.732 1.65 1.668 1.461 2.575 2.512.551.64.645 2.395.188 3.016-.24.326-.547.349-1.067.628-.575-.367-.674-1.21-1.256-1.57h-.002z"/></g></svg>